HIERARCHY
ROOT Pelvis
{
	OFFSET 0.000000 0.000000 0.000000
	CHANNELS 6 Xposition Yposition Zposition Xrotation Yrotation Zrotation
	JOINT LeftUpLeg_virtual
	{
		OFFSET 0.000000 0.000000 0.000000
		CHANNELS 3 Xrotation Yrotation Zrotation
		JOINT LeftUpLeg
		{
			OFFSET 8.479700 -4.795502 -0.379100
			CHANNELS 3 Xrotation Yrotation Zrotation
			JOINT LeftLeg
			{
				OFFSET 0.024144 -32.555107 0.112900
				CHANNELS 3 Xrotation Yrotation Zrotation
				JOINT LeftFoot
				{
					OFFSET -0.024144 -32.638630 -3.012600
					CHANNELS 3 Xrotation Yrotation Zrotation
					JOINT LeftToeBase
					{
						OFFSET 0.970200 -13.225400 11.864200
						CHANNELS 3 Xrotation Yrotation Zrotation
						End Site
						{
							OFFSET 0 0 0
						}
					}
				}
			}
		}
	}
	JOINT RightUpLeg_virtual
	{
		OFFSET 0.000000 0.000000 0.000000
		CHANNELS 3 Xrotation Yrotation Zrotation
		JOINT RightUpLeg
		{
			OFFSET -8.479700 -4.795502 -0.379100
			CHANNELS 3 Xrotation Yrotation Zrotation
			JOINT RightLeg
			{
				OFFSET -0.023144 -32.555092 0.112900
				CHANNELS 3 Xrotation Yrotation Zrotation
				JOINT RightFoot
				{
					OFFSET 0.023144 -32.638641 -3.012700
					CHANNELS 3 Xrotation Yrotation Zrotation
					JOINT RightToeBase
					{
						OFFSET -0.970200 -13.225400 11.864200
						CHANNELS 3 Xrotation Yrotation Zrotation
						End Site
						{
							OFFSET 0 0 0
						}
					}
				}
			}
		}
	}
	JOINT Hips_virtual
	{
		OFFSET 0.000000 0.000000 0.000000
		CHANNELS 3 Xrotation Yrotation Zrotation
		JOINT Hips
		{
			OFFSET -0.000000 -0.000000 -0.000000
			CHANNELS 3 Xrotation Yrotation Zrotation
			JOINT Spine
			{
				OFFSET 0.000000 7.722000 1.166200
				CHANNELS 3 Xrotation Yrotation Zrotation
				JOINT Spine1
				{
					OFFSET 0.000000 12.024101 0.248800
					CHANNELS 3 Xrotation Yrotation Zrotation
					JOINT Spine2
					{
						OFFSET 0.000000 11.502998 -0.491200
						CHANNELS 3 Xrotation Yrotation Zrotation
						JOINT Neck_virtual
						{
							OFFSET 0.000000 0.000000 0.000000
							CHANNELS 3 Xrotation Yrotation Zrotation
							JOINT Neck
							{
								OFFSET 0.000000 18.430702 -3.123100
								CHANNELS 3 Xrotation Yrotation Zrotation
								JOINT Head
								{
									OFFSET 0.000000 9.051102 1.034000
									CHANNELS 3 Xrotation Yrotation Zrotation
									End Site
									{
										OFFSET 0 0 0
									}
								}
							}
						}
						JOINT LeftShoulder_virtual
						{
							OFFSET 0.000000 0.000000 0.000000
							CHANNELS 3 Xrotation Yrotation Zrotation
							JOINT LeftShoulder
							{
								OFFSET 6.197800 13.665199 -4.064700
								CHANNELS 3 Xrotation Yrotation Zrotation
								JOINT LeftArm
								{
									OFFSET 7.778100 -0.187103 -1.709300
									CHANNELS 3 Xrotation Yrotation Zrotation
									JOINT LeftForeArm
									{
										OFFSET 22.049376 0.000000 0.000000
										CHANNELS 3 Xrotation Yrotation Zrotation
										JOINT LeftHand
										{
											OFFSET 23.009392 0.000000 0.000000
											CHANNELS 3 Xrotation Yrotation Zrotation
											End Site
											{
												OFFSET 0 0 0
											}
										}
									}
								}
							}
						}
						JOINT RightShoulder_virtual
						{
							OFFSET 0.000000 0.000000 0.000000
							CHANNELS 3 Xrotation Yrotation Zrotation
							JOINT RightShoulder
							{
								OFFSET -6.197800 13.665199 -4.064700
								CHANNELS 3 Xrotation Yrotation Zrotation
								JOINT RightArm
								{
									OFFSET -7.778100 -0.187103 -1.709300
									CHANNELS 3 Xrotation Yrotation Zrotation
									JOINT RightForeArm
									{
										OFFSET -22.049376 0.000000 0.000000
										CHANNELS 3 Xrotation Yrotation Zrotation
										JOINT RightHand
										{
											OFFSET -23.009392 0.000000 0.000000
											CHANNELS 3 Xrotation Yrotation Zrotation
											End Site
											{
												OFFSET 0 0 0
											}
										}
									}
								}
							}
						}
					}
				}
			}
		}
	}
}
MOTION
Frames: 7
Frame Time: 0.03333333
0.174310 67.487831 -4.956020 0.000000 0.000000 0.000000 -11.642902 4.149708 0.314619 -34.041977 -2.716296 13.984304 72.157820 -0.328092 0.474329 -26.202696 -3.466439 -11.427619 0.000000 0.000000 0.000000 -11.642902 4.149708 0.314619 -30.907890 -6.350239 -19.062612 73.136696 -0.232832 -0.587791 -29.618774 -2.085568 10.928094 0.000000 0.000000 0.000000 -11.642902 4.149708 0.314619 0.000000 0.000000 0.000000 23.956301 0.150155 0.839446 13.992121 -0.012109 0.874928 0.000000 0.000000 0.000000 13.993092 -0.019272 0.870006 17.101286 -1.158556 -1.120068 0.000000 0.000000 0.000000 13.993092 -0.019272 0.870006 1.274362 -20.464775 -8.784591 -24.361968 0.125580 -58.409524 -134.037381 -77.572425 -130.766512 0.000000 0.000000 0.000000 13.993092 -0.019272 0.870006 4.281749 6.062525 24.486790 -20.183593 30.544015 38.966919 -101.168543 66.637402 94.218655 0.000000 0.000000 0.000000 
0.135458 67.755409 -4.708494 0.000000 0.000000 0.000000 -12.232975 4.176793 0.283484 -32.743220 -2.771926 14.012101 71.490948 -0.325126 0.470022 -26.229199 -3.321267 -11.504256 0.000000 0.000000 0.000000 -12.232975 4.176793 0.283484 -29.611390 -6.634812 -18.893051 72.396863 -0.197802 -0.577901 -29.611804 -2.152245 10.884367 0.000000 0.000000 0.000000 -12.232975 4.176793 0.283484 0.000000 0.000000 0.000000 23.831054 0.142501 0.839042 13.805195 -0.026558 0.877420 0.000000 0.000000 0.000000 13.806106 -0.034361 0.873752 16.072156 -1.248016 -1.155621 0.000000 0.000000 0.000000 13.806106 -0.034361 0.873752 1.202832 -20.287489 -9.383895 -23.683025 -0.501264 -58.145045 -129.876525 -77.684611 -126.405833 0.000000 0.000000 0.000000 13.806106 -0.034361 0.873752 4.360490 5.935279 25.053790 -19.084838 29.887695 38.977243 -103.118235 67.822891 95.667181 0.000000 0.000000 0.000000 
0.082245 68.012451 -4.474627 0.000000 0.000000 0.000000 -12.399896 4.211186 0.284283 -31.926449 -2.800756 13.993808 70.811235 -0.313583 0.465845 -26.186631 -3.198479 -11.583615 0.000000 0.000000 0.000000 -12.399896 4.211186 0.284283 -28.818535 -6.855407 -18.754678 71.716126 -0.193671 -0.569496 -29.581160 -2.219479 10.839925 0.000000 0.000000 0.000000 -12.399896 4.211186 0.284283 -0.000001 0.000000 0.000000 23.645181 0.119358 0.835385 13.485200 -0.074091 0.867699 0.000000 0.000000 0.000000 13.486096 -0.083624 0.864978 15.039853 -1.249821 -1.288811 0.000000 0.000000 0.000000 13.486096 -0.083624 0.864978 1.157236 -20.150262 -9.778062 -22.947110 -1.113763 -58.002916 -128.515938 -78.463820 -124.614711 0.000000 0.000000 0.000000 13.486096 -0.083624 0.864978 4.416295 5.793501 25.390707 -17.739866 29.670171 39.116732 -104.281566 68.988599 96.225925 0.000000 0.000000 0.000000 
0.017701 68.266678 -4.236013 0.000000 0.000000 0.000000 -12.414980 4.250012 0.305791 -31.276474 -2.788064 13.978675 70.114754 -0.329001 0.460964 -26.119803 -3.095607 -11.650733 0.000000 0.000000 0.000000 -12.414980 4.250012 0.305791 -28.202360 -7.070339 -18.643741 71.056193 -0.172226 -0.561015 -29.553525 -2.292379 10.774869 0.000000 0.000000 0.000000 -12.414980 4.250012 0.305791 0.000000 0.000000 0.000000 23.415031 0.075242 0.835179 13.067813 -0.162275 0.825651 0.000000 0.000000 0.000000 13.068599 -0.171246 0.822490 13.978639 -1.216189 -1.482818 0.000000 0.000000 0.000000 13.068599 -0.171246 0.822490 1.128245 -20.026951 -10.044963 -22.214348 -1.700942 -57.924615 -130.356797 -79.992362 -125.863475 0.000000 0.000000 0.000000 13.068599 -0.171246 0.822490 4.462506 5.633526 25.560923 -16.203661 29.709089 39.388212 -105.211920 70.240805 96.452093 0.000000 0.000000 0.000000 
-0.049137 68.529686 -4.000780 0.000000 0.000000 0.000000 -12.536039 4.256432 0.323914 -30.494329 -2.743811 13.996693 69.383698 -0.344186 0.455817 -26.045161 -2.999308 -11.718233 0.000000 0.000000 0.000000 -12.536039 4.256432 0.323914 -27.459170 -7.264993 -18.496075 70.359261 -0.147852 -0.551902 -29.506687 -2.373103 10.703356 0.000000 0.000000 0.000000 -12.536039 4.256432 0.323914 0.000000 0.000000 0.000000 23.209936 0.037900 0.821451 12.703022 -0.226610 0.772105 0.000000 0.000000 0.000000 12.703643 -0.233557 0.766655 12.861712 -1.200976 -1.613198 0.000000 0.000000 0.000000 12.703643 -0.233557 0.766655 1.104431 -19.890672 -10.278940 -21.196860 -2.412180 -57.702005 -130.960203 -81.096182 -125.841359 0.000000 0.000000 0.000000 12.703643 -0.233557 0.766655 4.503873 5.478720 25.672273 -14.594892 29.842118 39.506162 -105.759052 71.476837 96.313297 0.000000 0.000000 0.000000 
-0.116779 68.805382 -3.771666 0.000000 0.000000 0.000000 -12.825896 4.214822 0.335277 -29.504208 -2.660571 14.055921 68.607065 -0.353205 0.450495 -25.963258 -2.906424 -11.788529 0.000000 0.000000 0.000000 -12.825896 4.214822 0.335277 -26.513235 -7.422747 -18.291593 69.608090 -0.129699 -0.542149 -29.431760 -2.463404 10.631253 0.000000 0.000000 0.000000 -12.825896 4.214822 0.335277 0.000000 0.000000 0.000000 23.048982 0.013055 0.786374 12.432205 -0.260496 0.712821 0.000000 0.000000 0.000000 12.432770 -0.268740 0.707647 11.682951 -1.246639 -1.642081 0.000000 0.000000 0.000000 12.432770 -0.268740 0.707647 1.084324 -19.739513 -10.491440 -19.739979 -3.328592 -57.227150 -128.509244 -81.493562 -122.724019 0.000000 0.000000 0.000000 12.432770 -0.268740 0.707647 4.539593 5.334782 25.736223 -12.880560 30.006141 39.327710 -104.614210 72.757327 94.480074 0.000000 0.000000 0.000000 
-0.184349 69.081932 -3.548349 0.000000 0.000000 0.000000 -13.166229 4.175211 0.335208 -28.464439 -2.578340 14.131092 67.819619 -0.361037 0.445066 -25.871070 -2.822657 -11.857715 0.000000 0.000000 0.000000 -13.166229 4.175211 0.335208 -25.508783 -7.588360 -18.071221 68.835972 -0.109814 -0.532038 -29.342052 -2.554936 10.556010 0.000000 0.000000 0.000000 -13.166229 4.175211 0.335208 0.000001 0.000000 0.000000 22.904910 -0.004450 0.753174 12.195144 -0.281553 0.670983 0.000000 0.000000 0.000000 12.195634 -0.290508 0.666839 10.458422 -1.317362 -1.659815 0.000000 0.000000 0.000000 12.195634 -0.290508 0.666839 1.067486 -19.566469 -10.690707 -18.296516 -4.238707 -56.730496 -125.598218 -81.931842 -119.149016 0.000000 0.000000 0.000000 12.195634 -0.290508 0.666839 4.572036 5.202214 25.784063 -11.288739 30.124618 39.155791 -102.578137 73.922079 91.818868 0.000000 0.000000 0.000000 
